<svg width="208" height="71" viewBox="0 0 208 71" fill="none" xmlns="http://www.w3.org/2000/svg">
<path fill-rule="evenodd" clip-rule="evenodd" d="M187.688 0.39422C191.268 0.392164 194.85 0.390107 198.432 0.39422C198.433 2.42181 198.433 4.44941 198.433 6.477C198.432 9.17712 198.432 11.8772 198.434 14.5773C200.077 14.5827 201.719 14.5819 203.361 14.5811C204.854 14.5803 206.347 14.5796 207.84 14.5835C207.84 15.7962 207.84 17.0089 207.841 18.2218V18.2219V18.2221V18.2222C207.841 20.0407 207.842 21.8595 207.838 23.679C205.958 23.6827 204.078 23.682 202.197 23.6813C200.944 23.6808 199.69 23.6803 198.436 23.6811C198.43 29.8339 198.43 35.9888 198.436 42.1416C198.48 43.4001 198.593 44.965 199.409 45.9912C200.197 47.0112 201.653 47.3361 202.87 47.4204C203.832 47.4391 204.794 47.4359 205.757 47.4326C206.486 47.4302 207.215 47.4277 207.943 47.4348C207.943 48.4737 207.943 49.5129 207.944 50.5522V50.5524V50.5526C207.944 52.6317 207.945 54.711 207.943 56.7894C207.048 56.7718 206.126 56.7804 205.193 56.789C202.322 56.8157 199.345 56.8434 196.699 56.1108C194.005 55.389 191.498 53.9228 189.954 51.5456C188.329 49.0717 187.792 45.876 187.692 42.9683C187.685 39.2857 187.686 35.6004 187.687 31.9155V31.9153V31.9152V31.915C187.687 29.1533 187.688 26.3918 187.685 23.6317C187.218 23.6299 186.751 23.6301 186.284 23.6304C185.724 23.6307 185.164 23.631 184.603 23.6276C184.603 22.6227 184.603 21.6178 184.602 20.6129C184.602 18.6031 184.602 16.5933 184.603 14.5835C185.117 14.5815 185.631 14.5815 186.144 14.5815C186.658 14.5815 187.171 14.5815 187.685 14.5794C187.686 12.2145 187.686 9.85015 187.686 7.48604C187.686 5.12193 187.686 2.75807 187.688 0.39422ZM26.8635 0.597658C24.5886 0.596428 22.313 0.595199 20.0491 0.599826C19.8541 0.540582 19.7798 0.786956 19.7158 0.999346L19.7158 0.999364L19.7158 0.999378C19.6887 1.08924 19.6635 1.17301 19.6317 1.22498C16.6207 9.7824 13.5987 18.3403 10.5767 26.8982L10.5766 26.8985C7.06422 36.8452 3.55182 46.7919 0.0566406 56.738H11.4286C12.1397 54.7164 12.8482 52.6935 13.5567 50.6707L13.5582 50.6665L13.5586 50.6653C14.1156 49.0747 14.6727 47.4842 15.231 45.8945C21.364 45.8875 27.4956 45.8895 33.6282 45.8915H33.6289H33.6297H33.6304H33.6311L36.6979 45.8924C37.2274 47.431 37.7594 48.9687 38.2916 50.5067L38.2917 50.507L38.2918 50.5073L38.2919 50.5076L38.292 50.5079C39.0101 52.5835 39.7284 54.6594 40.4406 56.738L43.2861 56.7383C46.1309 56.7386 48.9748 56.739 51.8188 56.7359C46.0066 40.0842 40.17 23.4357 34.335 6.79193L32.1635 0.59777C30.4012 0.599569 28.6326 0.598613 26.8635 0.597658ZM31.0102 28.6725L31.0099 28.6715L31.0096 28.6705L31.0093 28.6696L31.009 28.6686C29.3296 23.1967 27.65 17.7239 25.9541 12.2597C24.4773 17.0599 22.9919 21.8576 21.5066 26.6552L21.5051 26.66L21.5044 26.662C20.3638 30.3463 19.2231 34.0306 18.0863 37.7161C20.08 37.7145 22.0738 37.7153 24.0675 37.7162C27.3073 37.7175 30.5472 37.7188 33.787 37.7099C32.8597 34.6987 31.935 31.6857 31.0102 28.6725ZM119.165 14.2524C122.964 14.6925 126.612 16.1299 129.589 18.5462C132.651 20.9872 134.751 24.4111 135.781 28.1703C136.581 31.2549 136.805 34.5698 136.188 37.7079C130.649 37.7223 125.108 37.72 119.567 37.7177H119.567H119.566H119.566C114.817 37.7157 110.067 37.7138 105.317 37.7223C105.449 39.8178 105.737 41.8084 106.689 43.7065C107.547 45.438 109.064 46.787 110.781 47.6363C112.719 48.5658 114.999 48.7653 117.109 48.4794C118.941 48.2491 120.685 47.517 122.065 46.2811C123.42 45.1213 124.228 43.5502 124.631 41.829C126.075 41.8306 127.519 41.8297 128.962 41.8289H128.962H128.962H128.963C131.308 41.8276 133.653 41.8262 135.997 41.8352C135.36 45.2673 133.743 48.4918 131.333 51.0191C128.985 53.5074 125.91 55.3273 122.639 56.3021C119.694 57.2069 116.661 57.4002 113.601 57.1843C109.726 56.8717 105.969 55.6317 102.802 53.3532C99.3765 50.8896 96.8718 47.2147 95.7017 43.1718C94.7228 39.8219 94.5377 36.1923 94.8503 32.7293C95.2534 28.5445 96.6168 24.5283 99.2696 21.2257C101.54 18.3426 104.659 16.3993 108.104 15.221C111.625 14.0529 115.499 13.8308 119.165 14.2524ZM114.012 22.6672C116.27 22.3711 118.6 22.5521 120.669 23.5597C122.339 24.3905 123.842 25.6717 124.681 27.3641C125.582 29.1141 125.763 30.9916 125.742 32.9329C123.7 32.9329 121.658 32.9334 119.616 32.934H119.609H119.608H119.608C114.846 32.9353 110.085 32.9366 105.324 32.9308C105.501 30.5742 106.044 28.2854 107.508 26.3791C109.067 24.335 111.483 23.0292 114.012 22.6672ZM92.6295 0.392096H81.8867C81.8897 3.09729 81.8874 5.80326 81.885 8.50937V8.50954V8.52151C81.8809 13.4001 81.8767 18.279 81.9032 23.1546C80.4822 19.6505 77.6957 16.8003 74.2286 15.297C71.399 14.0673 68.3164 13.8945 65.2791 14.1619C61.8634 14.4868 58.5978 15.8358 55.9224 17.9745C53.1915 20.1625 51.2749 23.278 50.1377 26.56C49.1691 29.4452 48.7393 32.5175 48.7743 35.5569C48.7167 39.3571 49.3562 43.3281 50.9582 46.7952C52.4038 49.8675 54.6001 52.6169 57.477 54.4595C60.391 56.3658 63.8643 57.2973 67.3355 57.2562C70.2577 57.3138 73.3176 56.6866 75.8388 55.1627C78.5409 53.5279 80.7043 51.0335 81.8847 48.0969C81.8855 49.3315 81.8853 50.5658 81.885 51.8C81.8847 53.4458 81.8844 55.0916 81.8867 56.738H92.6295V0.392096ZM75.1569 24.2404C73.1293 23.424 70.822 23.2492 68.6751 23.5885C66.4726 23.9216 64.3957 24.9334 62.8472 26.5456C61.0067 28.3861 60.0669 30.9422 59.7934 33.4942C59.5034 36.1491 59.705 39.0404 60.7558 41.5205C61.6956 43.7722 63.4847 45.6127 65.6748 46.6759C67.9779 47.7679 70.713 47.9838 73.1992 47.5211C75.8026 47.0255 78.1202 45.514 79.6707 43.3712C81.2747 41.177 81.8958 38.4482 81.8896 35.7625C81.9287 33.5354 81.538 31.1684 80.5015 29.1778C79.3931 26.9631 77.4457 25.1781 75.1569 24.2404ZM146.7 13.9643H146.7L149.387 13.9646C149.386 15.0595 149.386 16.1544 149.387 17.2492C149.388 19.2205 149.389 21.1917 149.383 23.1629C151.005 18.7602 154.955 15.4678 159.512 14.4602C162.723 13.7651 166.181 13.8515 169.34 14.7728C172.824 15.7948 175.894 17.954 178.088 20.8413C180.624 24.1356 181.888 28.0675 182.32 32.168C182.727 36.2644 182.466 40.5746 181.185 44.5045C180.161 47.5233 178.483 50.4557 176.118 52.6211C173.344 55.1444 169.776 56.7381 166.044 57.1082C162.94 57.3859 159.874 57.1658 156.987 55.9217C153.504 54.4185 150.742 51.4983 149.387 47.9613V70.6703C148.363 70.6703 147.34 70.6707 146.316 70.671H146.316C143.758 70.6718 141.201 70.6727 138.644 70.6683C138.639 57.1668 138.64 43.6652 138.641 30.1637C138.642 24.7647 138.642 19.3657 138.642 13.9666C141.329 13.9636 144.014 13.9639 146.7 13.9643ZM158.329 23.5865C160.5 23.1875 162.828 23.3623 164.893 24.1664C167.457 25.1802 169.514 27.2757 170.544 29.8257C171.578 32.3345 171.745 35.2505 171.436 37.9197C171.107 40.5519 170.129 43.0382 168.163 44.8786C165.335 47.6281 161.025 48.3026 157.301 47.3402C154.267 46.5546 151.748 44.2967 150.477 41.4547C149.675 39.6533 149.377 37.7244 149.336 35.7646C149.342 33.1406 149.811 30.5948 151.216 28.343C152.805 25.8403 155.4 24.0883 158.329 23.5865Z" fill="black"/>
</svg>
