<svg width="82" height="25" viewBox="0 0 82 25" fill="none" xmlns="http://www.w3.org/2000/svg">
<path d="M8.72442 1.73248L6.33732 1.72071L2.63908 1.71893C2.38259 1.71861 0.399148 1.73587 0.399148 1.73587L0.361616 4.70511L0 4.71576L0.0230488 1.37703L0.0113686 0.00585938C1.27189 0.0627897 5.82666 0.102625 10.5527 0.105528C16.0637 0.108431 19.6145 0.0602093 21.0078 0.0223095L20.9904 1.54169L21.0175 4.91832L20.6425 4.91397C20.645 4.63835 20.5822 3.51765 20.5857 3.4083C20.587 3.3675 20.5075 1.86328 20.4967 1.75022L18.9141 1.72845L14.1728 1.72523L12.3558 1.73056L12.3473 22.5593C12.3473 22.5888 12.3799 23.9263 12.3873 24.2032C12.5694 24.2271 14.3266 24.3406 14.6444 24.3417L14.7684 24.3406V24.9073C14.6732 24.9073 14.5561 24.9171 14.4574 24.9165C13.46 24.9049 11.8484 24.7933 10.7032 24.793C9.57618 24.7919 7.98644 24.8945 6.81189 24.9098C6.78012 24.9109 6.53857 24.9049 6.44887 24.9006L6.44637 24.2958C6.45867 24.2973 6.53016 24.295 6.64135 24.2913C7.13783 24.2734 8.36035 24.1984 8.67821 24.1737L8.72851 24.1668L8.72789 22.3834L8.72442 1.73248Z" fill="black"/>
<path d="M39.0861 0C39.0861 0 40.8646 5.12631 41.1538 5.87657C41.4433 6.62682 46.8793 19.5979 46.8793 19.5979C46.8793 19.5979 49.4379 14.0124 51.7171 8.01815C52.1796 6.80487 52.7851 5.22243 53.2307 3.9411C53.8848 2.06562 54.6029 0.0087089 54.6029 0.0087089L56.0038 0.00951526C56.0038 0.00951526 56.3499 2.29995 56.4718 3.32019C56.8286 6.28814 59.1629 18.3503 59.983 22.3186C60.1869 23.3106 60.3426 24.1696 60.3426 24.1696C60.5829 24.1854 61.5296 24.2733 62.092 24.3172C62.2085 24.3264 62.5231 24.3422 62.5958 24.3428L62.5964 24.94C62.5964 24.94 62.3432 24.9523 62.2029 24.9523C60.9475 24.9443 58.9912 24.8391 57.7842 24.8379C56.7115 24.8376 55.6781 24.9215 54.6047 24.9421C54.4225 24.946 54.2384 24.938 54.0514 24.938V24.3467C54.0581 24.3452 54.2012 24.338 54.2761 24.3403C54.8011 24.3177 56.1907 24.1926 56.3289 24.1861C56.3295 23.9702 56.2543 23.2183 56.1418 22.4505C56.0635 21.9083 55.9307 20.9827 55.7897 20.0702C55.4863 18.2963 54.0738 10.9438 53.6546 8.90361C53.5861 8.56832 53.5437 8.38092 53.5437 8.38092C53.5437 8.38092 49.1539 18.7905 48.2696 20.8414C48.183 21.0433 48.1213 21.1848 48.1009 21.2317C47.2544 23.2068 46.5445 24.9675 46.5445 24.9675L45.2983 24.9611L38.476 8.69906L38.3144 8.32086C38.3144 8.32086 37.7172 11.3682 36.8545 15.6681C36.3985 17.9913 35.4523 23.8004 35.3886 24.1848C35.9326 24.2586 37.002 24.3407 37.2939 24.3317C37.361 24.3317 37.4747 24.3344 37.5594 24.3344L37.5586 24.9225C37.4365 24.9383 37.1517 24.9392 37.1402 24.9391C36.109 24.9188 35.3662 24.845 34.2539 24.845C33.9613 24.845 32.4152 24.9179 31.8693 24.9355C31.6421 24.9453 31.321 24.9209 31.2598 24.9233L31.2605 24.3416C31.3138 24.3416 31.422 24.3201 31.4904 24.3177C31.9838 24.2988 32.7422 24.228 33.3857 24.1513C33.438 23.865 33.9951 21.0009 34.1729 19.9871C34.8574 16.6292 36.8762 5.41213 37.1294 3.90001C37.351 2.26596 37.6094 0.234531 37.6323 0.0103573C38.1655 0.019389 39.0861 0 39.0861 0Z" fill="black"/>
<path d="M30.004 24.938C29.0782 24.9378 27.5068 24.7943 26.3284 24.7937C25.1635 24.7929 23.5823 24.9338 22.4448 24.9335C22.3478 24.9343 22.1771 24.9143 22.084 24.9143L22.0843 24.3232C22.3086 24.3185 23.3134 24.234 23.5938 24.2152C23.9217 24.1929 24.225 24.1776 24.3597 24.1373C24.3597 24.1373 24.3627 23.4248 24.3671 22.3194C24.3816 18.4973 24.4118 7.69488 24.3762 2.80693C24.373 2.29133 24.3699 0.984678 24.3699 0.79534C24.1568 0.774697 23.8591 0.748086 23.6455 0.72196C23.3783 0.708896 22.2785 0.611324 22.0915 0.601164L22.0852 0.00976562C23.1757 0.0102495 24.7944 0.113305 26.1082 0.114111C27.3642 0.114756 29.0668 0.0141201 30.3554 0.0146039L30.3527 0.631C30.148 0.643418 29.651 0.672125 29.6343 0.673738C29.2582 0.706961 28.2072 0.816629 27.949 0.832917C27.9485 1.20159 27.9477 1.88895 27.9468 2.73484C27.9437 7.11187 27.9334 18.5623 27.9297 22.4179C27.929 22.9222 27.9286 23.3875 27.9279 23.6673C27.9279 23.9621 27.9298 24.1389 27.9329 24.1505C27.9399 24.1723 28.5986 24.2294 28.7509 24.2392C29.0408 24.2694 30.2381 24.3198 30.2748 24.3276H30.3547L30.3534 24.9188C30.2748 24.9183 30.0842 24.9391 30.004 24.938Z" fill="black"/>
<path d="M69.2408 1.82326L69.2299 11.6248L76.0274 11.65C76.0586 11.65 77.8263 11.6003 77.8688 11.6008C77.9764 11.6016 79.1899 11.5367 79.2366 11.5219C79.2366 11.5219 79.2564 11.4188 79.2829 11.3448C79.3824 10.7516 79.5068 10.1888 79.5394 9.74867C79.5394 9.74867 79.5705 9.56046 79.5735 9.4329L79.9596 9.42547C79.96 9.47111 79.9797 9.58433 79.9776 9.74415C79.9722 10.3346 79.9255 11.5622 79.9269 12.3652C79.9282 13.5237 79.9619 14.569 79.9688 15.0929C79.9742 15.2416 79.9635 15.4804 79.9635 15.4804H79.5394C79.5327 15.4256 79.5252 15.3674 79.5159 15.3074C79.4414 14.6392 79.3802 14.1679 79.2687 13.4872C79.2653 13.4527 79.2421 13.33 79.234 13.2516C79.0174 13.2382 78.4458 13.2198 78.1404 13.2108C78.0077 13.2069 76.351 13.195 74.4875 13.1917C73.7229 13.19 72.3511 13.2229 71.7692 13.2217C71.0874 13.2205 69.9619 13.2593 69.2277 13.2843L69.2291 22.1725L69.2581 23.3176L73.3844 23.3866L79.2611 23.3841C79.2875 23.3841 80.606 23.3362 81.0185 23.3441C81.1045 23.3458 81.2811 23.3314 81.2811 23.3314C81.3204 23.0446 81.3688 22.4629 81.4168 21.9075C81.4222 21.843 81.5689 20.3681 81.5689 19.972L81.9313 19.968C81.9313 20.3433 81.8516 24.9998 81.8516 24.9998C81.1892 24.9988 79.1563 24.9959 76.6444 24.9604C75.1234 24.9388 73.4273 24.938 71.7523 24.9146C70.3953 24.8953 69.0538 24.8496 67.8312 24.8507C66.0904 24.8517 64.385 24.957 63.7234 24.9573C63.5717 24.9573 63.3042 24.9465 63.2461 24.9469L63.2467 24.3611H63.3679C63.7768 24.3595 64.9776 24.2939 65.6039 24.1866C65.6039 24.0695 65.6461 22.6197 65.6461 22.5898C65.6461 22.5898 65.6535 4.18552 65.6544 3.36059C65.655 2.47035 65.6381 0.98887 65.6385 0.857914C65.2844 0.818562 65.1576 0.797274 65.0833 0.783566C64.7075 0.733893 63.9659 0.673898 63.569 0.647287C63.4559 0.649868 63.3326 0.636481 63.2724 0.625838C63.2724 0.625838 63.2718 0.0504056 63.2684 0.0420193C63.3578 0.0476634 63.5434 0.0352452 63.8767 0.0366974C64.5769 0.0396006 65.8648 0.136527 67.4413 0.139108C68.4309 0.140882 70.0292 0.0968533 71.1727 0.0834673C72.8033 0.0842737 74.0411 0.0715329 75.6221 0.0623402C78.2004 0.0481479 80.4031 0.0325042 81.2643 0.0287948C81.5155 0.0283109 81.6531 0.0273438 81.6531 0.0273438C81.6531 0.0721784 81.651 0.125561 81.651 0.185071C81.6515 0.369571 81.6436 0.694058 81.6463 1.09241C81.6529 2.33214 81.6849 4.28099 81.6849 4.91739L81.3231 4.91852L81.3191 4.74402C81.2833 4.30916 81.2039 3.08201 81.106 2.04856C81.0964 1.95663 81.0796 1.88406 81.0796 1.88406C80.8641 1.87712 79.9825 1.85051 79.9668 1.83729C79.9524 1.82519 79.2498 1.81568 79.235 1.8089C79.2289 1.80552 76.9207 1.79068 74.5439 1.78778C72.9198 1.78552 71.3246 1.79407 70.3445 1.79391C70.1047 1.79262 69.2408 1.82326 69.2408 1.82326Z" fill="black"/>
</svg>
