<svg width="90" height="90" viewBox="0 0 90 90" fill="none" xmlns="http://www.w3.org/2000/svg">
<path d="M72.3468 60.8406H40.5095L40.5079 60.8391V66.6725L40.6663 66.5149H72.3468L72.3483 66.5149L72.3468 66.5133V60.8406Z" fill="black"/>
<path d="M40.6655 54.2207L40.8231 54.0651V23.1699H66.362C66.4616 23.1756 66.5606 23.1834 66.659 23.1931C67.8093 23.285 68.8837 23.6469 69.8187 24.2156C70.3785 24.539 70.8613 24.9111 71.2419 25.2946C72.2774 26.338 73.2594 28.2405 73.2877 29.9049L73.2882 30.1394C73.291 30.2227 73.2925 30.3064 73.2925 30.3904V33.7423C73.2935 35.5351 73.2932 37.328 73.2925 39.1209V53.3249L73.294 54.2207L73.2925 54.2191V54.3783H66.7986V31.1532C66.7986 29.9903 65.8921 29.041 64.7519 28.9797H60.3047V54.3783H53.8109V54.2207L53.7478 54.2207L53.8109 54.1584V54.1549L53.7478 54.2207V29.0285L53.7977 28.9765H53.7655L53.7399 29.0018H47.317V54.3783H40.8231V54.2207L40.6655 54.2207Z" fill="black"/>
<path fill-rule="evenodd" clip-rule="evenodd" d="M36.2522 55.7968V55.4356L36.2524 55.3825L36.2525 55.3436L36.2522 55.2751L36.2522 23.1699H23.9359C20.1008 23.1699 16.9637 26.1558 16.7238 29.9299C16.713 30.092 16.7075 30.2555 16.7075 30.4203V47.0963C16.7075 47.1775 16.7089 47.2584 16.7115 47.3389C16.8117 51.244 20.0082 54.3783 23.9375 54.3783H29.6533C29.6708 54.7872 29.6684 54.8653 29.6513 55.4069L29.6464 55.5636C29.6228 59.7184 25.8494 60.5743 24.363 60.7161H20.1751V66.5149L20.328 66.3628V66.6725H23.9469C30.7419 66.6725 36.2522 61.8037 36.2522 55.7968ZM23.2219 31.1454C23.2219 29.9443 24.1944 28.9702 25.3939 28.9702H29.6669V28.9745L29.6322 29.0096V48.3809L29.6669 48.416V48.5464H25.3939C24.1944 48.5464 23.2219 47.5723 23.2219 46.3713V31.1454Z" fill="black"/>
<path fill-rule="evenodd" clip-rule="evenodd" d="M78.4608 0H11.3816C5.0958 0 0 5.0958 0 11.3816V78.4608C0 84.7466 5.0958 89.8424 11.3816 89.8424H78.4608C84.7466 89.8424 89.8424 84.7466 89.8424 78.4608V78.4069C89.8434 78.3425 89.844 78.278 89.844 78.2133V11.6275C89.844 11.5629 89.8434 11.4983 89.8424 11.4339V11.3816C89.8424 5.0958 84.7466 0 78.4608 0ZM11.1373 5.80377C8.88296 5.97875 6.99077 7.44154 6.19734 9.45557C5.98626 10.0444 5.87128 10.6791 5.87128 11.3406V78.5002C5.87128 78.8178 5.8978 79.1293 5.94872 79.4324C6.48073 81.7083 8.35832 83.4684 10.699 83.8302C10.9323 83.8597 11.1702 83.875 11.4116 83.875H78.207C81.3074 83.875 83.8214 81.3641 83.8214 78.2653V11.4068C83.8214 8.30805 81.3074 5.7972 78.207 5.7972H11.4116C11.3196 5.7972 11.2282 5.7994 11.1373 5.80377Z" fill="black"/>
</svg>
