<svg width="146" height="39" viewBox="0 0 146 39" fill="none" xmlns="http://www.w3.org/2000/svg">
<path d="M102.528 8.45399C101.259 10.1469 100.012 11.8111 98.7592 13.4825C98.4888 13.45 98.2254 13.4077 97.9601 13.3875C96.5557 13.2814 95.2768 13.5879 94.2271 14.5922C93.4995 15.2886 93.1022 16.1666 92.8954 17.1436C92.7763 17.7059 92.7589 18.2761 92.7589 18.8488L92.7596 32.4706H87.3053V8.51647C88.9873 8.51647 90.659 8.51647 92.3635 8.51647C92.3635 9.2975 92.3635 10.0616 92.3635 10.9064C92.491 10.7925 92.5651 10.732 92.6321 10.6656C93.4158 9.88717 94.2832 9.22655 95.289 8.7651C96.4739 8.22228 97.7225 8.02182 99.0162 8.04655C100.141 8.06803 101.252 8.21968 102.36 8.39801C102.4 8.40452 102.438 8.4234 102.528 8.45399ZM37.0419 0.00651441L47.8055 0.00195841V32.5031L21.0777 32.5025C16.7987 32.5025 17.2662 38.9954 10.7636 38.9954L0 39V6.49881L26.7277 6.49946C31.0068 6.49946 30.5393 0.00651441 37.0419 0.00651441ZM39.3949 8.49174H30.0409C26.2744 8.49174 25.7676 14.9163 19.5535 14.9163L8.38486 14.9215L8.41126 30.5096H17.7653C21.5317 30.5096 22.0385 24.085 28.2526 24.085L39.4213 24.0798L39.3949 8.49174ZM84.6812 22.6811C84.8094 24.4989 84.4797 26.2243 83.593 27.8183C82.3405 30.0696 80.426 31.4618 77.9752 32.1289C77.1161 32.3626 76.2384 32.4667 75.3478 32.4667H59.8171V0.00130756L75.1675 5.84211e-06C78.2604 -0.00324844 80.6353 1.35314 82.3534 3.89929C83.5453 5.66637 84.0695 7.64888 83.9117 9.78173C83.7205 12.3676 82.4957 14.3612 80.3674 15.7983C80.2309 15.8907 80.0905 15.9766 79.9102 16.0918C80.0203 16.1543 80.1028 16.2031 80.1878 16.248C81.0867 16.7238 81.9206 17.2907 82.6348 18.0255C83.893 19.32 84.5544 20.8808 84.6812 22.6811ZM65.2765 13.4877H74.4804C76.109 13.4708 77.328 12.6663 78.12 11.2462C79.0319 9.60991 78.5721 7.50894 77.4117 6.23391C76.7246 5.47892 75.8759 5.05782 74.8481 5.05651H65.2765V13.4877ZM79.1413 22.0745C78.6719 20.0614 76.8476 18.5781 74.796 18.5703H65.2778V27.4024H74.5146C74.6485 27.4024 74.7837 27.4037 74.9151 27.3835C76.4773 27.1498 77.7111 26.374 78.5856 25.0489C79.1832 24.1448 79.3918 23.1477 79.1413 22.0745ZM122.028 25.9191C121.131 29.0178 119.144 31.0849 116.163 32.1927C114.537 32.7973 112.847 32.99 111.12 32.9067C109.688 32.8377 108.302 32.5585 106.984 31.9799C104.355 30.8252 102.567 28.8499 101.497 26.1892C100.962 24.8601 100.67 23.4725 100.556 22.0445C100.433 20.504 100.477 18.9705 100.754 17.4482C101.095 15.5731 101.752 13.8275 102.884 12.2862C104.513 10.0688 106.702 8.75078 109.375 8.25417C111.371 7.88318 113.358 7.95608 115.298 8.58286C118.323 9.56044 120.422 11.5814 121.699 14.4933C122.305 15.8738 122.646 17.3271 122.753 18.8306C122.802 19.5238 122.81 20.2215 122.805 20.9172C122.801 21.4802 122.662 22.0263 122.496 22.5971C117.042 22.5971 111.616 22.5971 106.168 22.5971C106.141 23.0117 106.185 23.4009 106.276 23.7817C106.755 25.7857 108.025 27.0392 109.952 27.6094C110.521 27.7773 111.088 27.8651 111.649 27.873C113.551 27.873 115.231 26.9702 116.244 25.5897L122.102 25.6073C122.075 25.7206 122.056 25.8215 122.028 25.9191ZM106.228 17.9669C109.804 17.9669 113.363 17.9669 116.962 17.9669C116.962 17.8458 116.966 17.7528 116.962 17.661C116.879 15.9258 116.086 14.6039 114.568 13.8177C112.521 12.7581 110.455 12.8447 108.461 14.0051C107.562 14.5284 106.916 15.3049 106.53 16.2864C106.32 16.8201 106.209 17.3727 106.228 17.9669ZM137.049 20.6016L146 8.49629H139.689L133.863 16.3027L128.047 8.49629L121.735 8.49759L130.637 20.5762L121.74 32.466L128.17 32.4654L133.838 24.9005L139.494 32.4654H145.997L145.975 32.4361L137.049 20.6016Z" fill="black"/>
</svg>
