<svg width="158" height="27" viewBox="0 0 158 27" fill="none" xmlns="http://www.w3.org/2000/svg">
<path fill-rule="evenodd" clip-rule="evenodd" d="M12.6122 14.8532C10.6614 15.6564 9.24998 15.6953 8.54046 15.6953C3.28968 15.6953 0 12.1818 0 7.84767C0 3.51351 3.51351 0 7.84767 0H20.4902C23.5076 0 25.9537 2.44614 25.9537 5.46356C25.9537 7.63768 24.9534 9.25212 22.6715 10.4728C20.0566 11.8715 16.6324 13.2405 14.2053 14.2109L14.2053 14.2109C13.6039 14.4514 13.0637 14.6673 12.6122 14.8532ZM53.2101 20.4446C51.8553 24.3976 48.4283 26.3555 44.5126 26.3555C38.8649 26.3555 34.9863 22.3255 34.9863 16.4519C34.9863 10.5783 39.0535 6.54835 44.5126 6.54835C48.1254 6.54835 51.6666 8.20337 53.2473 12.4963C53.5103 13.2136 53.133 13.7024 52.3813 13.7024H50.9122C50.2321 13.7024 49.8204 13.4022 49.4804 12.762C48.3886 10.6155 46.6564 9.71227 44.5472 9.71227C41.0857 9.71227 38.7879 12.236 38.7879 16.4519C38.7879 20.6677 41.0087 23.1915 44.6243 23.1915C46.6565 23.1915 48.2769 22.3654 49.4432 20.0673C49.746 19.4272 50.1976 19.127 50.875 19.127H52.3441C53.0958 19.127 53.4731 19.653 53.2101 20.4446ZM148.694 9.52365C145.718 9.52365 143.535 11.5187 143.046 14.7198H154.153C153.89 11.5559 151.669 9.52365 148.694 9.52365ZM157.468 21.0849C155.774 24.7375 152.309 26.3555 148.845 26.3555L148.85 26.3581C143.277 26.3581 139.173 22.5167 139.173 16.4545C139.173 10.3923 143.389 6.551 148.699 6.551C154.009 6.551 157.848 10.0895 158 16.0003C158 16.7919 157.509 17.2063 156.757 17.2063H142.937C143.2 21.0078 145.421 23.3429 148.848 23.3429C150.843 23.3429 152.801 22.5141 153.93 20.519C154.27 19.916 154.684 19.6158 155.361 19.6158H156.754C157.506 19.6158 157.882 20.2188 157.468 21.0849ZM128.175 16.9433H126.937C126.27 16.9433 125.731 16.4013 125.731 15.7372V11.1441C125.731 10.4774 125.189 9.93807 124.525 9.93807H122.189C121.523 9.93807 120.983 9.39614 120.983 8.73201V8.09178C120.983 7.425 121.525 6.88572 122.189 6.88572H127.875C128.629 6.88572 129.043 7.26296 129.118 8.01475L129.352 10.0682C129.37 10.2356 129.593 10.2754 129.673 10.1267C131.118 7.40374 133.618 6.44208 136.421 6.54835C137.172 6.58553 137.55 7.0398 137.55 7.7916V8.95781C137.55 9.63789 136.994 10.1586 136.317 10.1267C133.15 9.97526 130.172 10.65 129.455 15.7372C129.341 16.529 128.927 16.9433 128.175 16.9433ZM133.634 25.9808H121.849H121.844C121.09 25.9808 120.638 25.5266 120.638 24.7747V24.1345C120.638 23.3801 121.092 22.9286 121.844 22.9286H124.517C125.271 22.9286 125.723 22.4742 125.723 21.7225V19.6504C125.723 18.8958 126.177 18.4443 126.929 18.4443H128.209C128.964 18.4443 129.415 18.8985 129.415 19.6504V21.7225C129.415 22.4769 129.87 22.9286 130.621 22.9286H133.634C134.388 22.9286 134.84 23.3827 134.84 24.1345V24.7747C134.84 25.5293 134.386 25.9808 133.634 25.9808ZM109.311 9.52632C106.335 9.52632 104.152 11.5214 103.663 14.7225H114.77C114.507 11.5586 112.286 9.52632 109.311 9.52632ZM118.085 21.0875C116.39 24.7403 112.926 26.3581 109.462 26.3581L109.467 26.3607C103.894 26.3607 99.7897 22.5194 99.7897 16.4572C99.7897 10.395 104.006 6.55365 109.316 6.55365C114.626 6.55365 118.465 10.0922 118.617 16.003C118.617 16.7946 118.125 17.2091 117.373 17.2091H103.554C103.817 21.0104 106.038 23.3455 109.465 23.3455C111.46 23.3455 113.418 22.5167 114.547 20.5217C114.887 19.9186 115.301 19.6184 115.979 19.6184H117.371C118.122 19.6184 118.5 20.2215 118.085 21.0875ZM75.5781 16.4545C75.5781 22.1793 71.5482 26.3581 65.9003 26.3581H65.8951C63.8602 26.3581 61.6021 25.7551 59.6441 24.1743C59.0067 23.6457 59.081 22.9684 59.7584 22.4795L60.5872 21.8765C61.1903 21.4249 61.7163 21.4993 62.2821 21.9509C63.637 22.9684 64.766 23.1942 65.9721 23.1942C69.4362 23.1942 71.7713 20.5217 71.7713 16.4545C71.7713 12.3874 69.399 9.71492 65.8977 9.71492C62.3964 9.71492 60.0241 12.4272 60.0241 16.3801C60.0241 17.0948 60.1011 17.9236 60.4013 18.864C60.5899 19.5786 60.4412 20.0673 59.8754 20.4818L58.7836 21.2734C58.1061 21.7623 57.4658 21.6507 57.1258 20.8591C56.4485 19.2412 56.2227 17.7722 56.2227 16.4545C56.2227 10.8068 60.2526 6.551 65.9003 6.551C71.5482 6.551 75.5781 10.7297 75.5781 16.4545ZM81.6005 25.9808H80.3572C79.6904 25.9808 79.1511 25.4389 79.1511 24.7747V1.20607C79.1511 0.539275 79.693 0 80.3572 0H81.6005C82.2646 0 82.8038 0.539275 82.8118 1.20607V9.38552C82.8118 9.54756 83.0163 9.61929 83.1173 9.48912C84.4403 7.78097 86.2122 6.55365 89.2114 6.55365C93.6158 6.55365 96.2139 9.37755 96.2139 14.4595V24.7774C96.2139 25.4442 95.672 25.9835 95.0078 25.9835H93.7275C93.0607 25.9835 92.5214 25.4415 92.5214 24.7774V15.0625C92.5214 11.5984 90.8638 9.71492 88.0027 9.71492C84.8387 9.71492 82.8065 11.9756 82.8065 15.7771V24.7747C82.8065 25.4415 82.2646 25.9808 81.6005 25.9808ZM10.6788 21.0994C10.6788 18.9749 11.9578 17.0594 13.92 16.245L17.9014 14.5927C21.9286 12.9213 26.3612 15.8808 26.3612 20.2412C26.3612 23.6192 23.6222 26.3575 20.244 26.3565L15.9334 26.3555C13.0311 26.3547 10.6788 24.0018 10.6788 21.0994ZM0 21.2537C0 18.7552 2.02548 16.7299 4.52395 16.7299C7.02242 16.7299 9.04782 18.7552 9.04782 21.2537V21.8397C9.04782 24.3381 7.02234 26.3635 4.52387 26.3635C2.0254 26.3635 0 24.3381 0 21.8397V21.2537Z" fill="black"/>
</svg>
