<svg width="70" height="37" viewBox="0 0 70 37" fill="none" xmlns="http://www.w3.org/2000/svg">
<g clip-path="url(#clip0_276_1047)">
<mask id="mask0_276_1047" style="mask-type:luminance" maskUnits="userSpaceOnUse" x="0" y="0" width="70" height="37">
<path d="M70 0H0V37H70V0Z" fill="white"/>
</mask>
<g mask="url(#mask0_276_1047)">
<path d="M22.8682 24.5801H19.7988V36.7619H22.8682V24.5801Z" fill="black"/>
<path d="M47.6158 28.072C47.4923 28.0078 46.5056 27.4216 45.0375 27.4216C43.0493 27.4216 41.6736 28.8052 41.6736 30.6708C41.6736 32.4809 42.992 33.9229 45.0375 33.9229C46.4803 33.9229 47.4836 33.3494 47.6158 33.2764V36.546C47.2347 36.6541 46.1876 36.9793 44.8168 36.9793C41.3664 36.9793 38.3398 34.5957 38.3398 30.6708C38.3398 27.0331 41.0815 24.3652 44.8168 24.3652C46.2615 24.3652 47.3271 24.7167 47.6158 24.8024V28.072Z" fill="black"/>
<path d="M15.5787 28.072C15.4552 28.0078 14.4684 27.4216 13.0004 27.4216C11.0122 27.4216 9.63648 28.8052 9.63648 30.6708C9.63648 32.4809 10.9549 33.9229 13.0004 33.9229C14.4432 33.9229 15.4465 33.3494 15.5787 33.2764V36.546C15.1976 36.6541 14.1505 36.9793 12.7797 36.9793C9.32926 36.9793 6.30273 34.5957 6.30273 30.6708C6.30273 27.0331 9.04442 24.3652 12.7797 24.3652C14.2244 24.3652 15.29 24.7167 15.5787 24.8024V28.072Z" fill="black"/>
<path d="M57.2731 27.4674C55.4521 27.4674 54.1 28.9026 54.1 30.6708C54.1 32.443 55.4521 33.8772 57.2731 33.8772C59.0921 33.8772 60.4484 32.443 60.4484 30.6708C60.4484 28.9026 59.0921 27.4674 57.2731 27.4674ZM63.7003 30.6708C63.7003 34.1556 61.014 36.9793 57.2731 36.9793C53.5317 36.9793 50.8496 34.1556 50.8496 30.6708C50.8496 27.1918 53.5317 24.3652 57.2731 24.3652C61.014 24.3652 63.7003 27.1918 63.7003 30.6708Z" fill="black"/>
<path d="M34.5064 27.3495C34.4607 27.3349 33.1687 26.9776 32.107 26.9776C30.8771 26.9776 30.2082 27.3904 30.2082 27.9756C30.2082 28.7176 31.1105 28.9766 31.6151 29.1363L32.4619 29.406C34.4539 30.0408 35.362 31.4069 35.362 32.8908C35.362 35.9511 32.6748 36.9793 30.3259 36.9793C28.6935 36.9793 27.1642 36.6784 27.0135 36.6463V33.843C27.2838 33.9112 28.5711 34.2958 29.9117 34.2958C31.4391 34.2958 32.141 33.8489 32.141 33.1585C32.141 32.5412 31.5334 32.1849 30.7721 31.9454C30.5864 31.883 30.3074 31.7954 30.1169 31.7331C28.4077 31.1917 26.9824 30.1859 26.9824 28.1694C26.9824 25.891 28.6857 24.3613 31.5149 24.3613C33.0092 24.3613 34.4151 24.7245 34.5064 24.7489V27.3495Z" fill="black"/>
<path d="M3.04792 11.4887C3.04792 10.6493 2.36347 9.96875 1.52445 9.96875C0.685418 9.96875 0 10.6493 0 11.4887V14.6862C0 15.5305 0.685418 16.212 1.52445 16.212C2.36347 16.212 3.04792 15.5305 3.04792 14.6862V11.4887Z" fill="black"/>
<path d="M11.4171 7.29337C11.4171 6.45403 10.7326 5.77148 9.8936 5.77148C9.0536 5.77148 8.36914 6.45403 8.36914 7.29337V14.6885C8.36914 15.5327 9.0536 16.2133 9.8936 16.2133C10.7326 16.2133 11.4171 15.5327 11.4171 14.6885V7.29337Z" fill="black"/>
<path d="M19.7882 1.55019C19.7882 0.710878 19.1037 0.0292969 18.2647 0.0292969C17.4247 0.0292969 16.7402 0.710878 16.7402 1.55019V17.726C16.7402 18.5702 17.4247 19.2518 18.2647 19.2518C19.1037 19.2518 19.7882 18.5702 19.7882 17.726V1.55019Z" fill="black"/>
<path d="M28.1593 7.29337C28.1593 6.45403 27.4748 5.77148 26.6358 5.77148C25.7958 5.77148 25.1113 6.45403 25.1113 7.29337V14.6885C25.1113 15.5327 25.7958 16.2133 26.6358 16.2133C27.4748 16.2133 28.1593 15.5327 28.1593 14.6885V7.29337Z" fill="black"/>
<path d="M36.5187 11.4887C36.5187 10.6493 35.8391 9.96875 35.0039 9.96875C34.1649 9.96875 33.4805 10.6493 33.4805 11.4887V14.6862C33.4805 15.5305 34.1649 16.212 35.0039 16.212C35.8391 16.212 36.5187 15.5305 36.5187 14.6862V11.4887Z" fill="black"/>
<path d="M36.5225 11.4887C36.5225 10.6493 35.8381 9.96875 34.9991 9.96875C34.16 9.96875 33.4746 10.6493 33.4746 11.4887V14.6862C33.4746 15.5305 34.16 16.212 34.9991 16.212C35.8381 16.212 36.5225 15.5305 36.5225 14.6862V11.4887Z" fill="black"/>
<path d="M44.8936 7.29337C44.8936 6.45403 44.2092 5.77148 43.3702 5.77148C42.5302 5.77148 41.8457 6.45403 41.8457 7.29337V14.6885C41.8457 15.5327 42.5302 16.2133 43.3702 16.2133C44.2092 16.2133 44.8936 15.5327 44.8936 14.6885V7.29337Z" fill="black"/>
<path d="M53.2646 1.55019C53.2646 0.710878 52.5801 0.0292969 51.7411 0.0292969C50.9013 0.0292969 50.2168 0.710878 50.2168 1.55019V17.726C50.2168 18.5702 50.9013 19.2518 51.7411 19.2518C52.5801 19.2518 53.2646 18.5702 53.2646 17.726V1.55019Z" fill="black"/>
<path d="M61.634 7.29337C61.634 6.45403 60.9495 5.77148 60.1105 5.77148C59.2705 5.77148 58.5859 6.45403 58.5859 7.29337V14.6885C58.5859 15.5327 59.2705 16.2133 60.1105 16.2133C60.9495 16.2133 61.634 15.5327 61.634 14.6885V7.29337Z" fill="black"/>
<path d="M69.9953 11.4887C69.9953 10.6493 69.3154 9.96875 68.4806 9.96875C67.6416 9.96875 66.957 10.6493 66.957 11.4887V14.6862C66.957 15.5305 67.6416 16.212 68.4806 16.212C69.3154 16.212 69.9953 15.5305 69.9953 14.6862V11.4887Z" fill="black"/>
<path d="M68.244 35.1582V35.3491H67.7015V36.7619H67.4792V35.3491H66.9336V35.1582H68.244Z" fill="black"/>
<path d="M68.3574 35.1582H68.7064L69.1856 36.4737H69.1933L69.6571 35.1582H69.9993V36.7619H69.7708V35.4474H69.7631L69.2767 36.7619H69.0662L68.5916 35.4474H68.5808V36.7619H68.3574V35.1582Z" fill="black"/>
</g>
</g>
<defs>
<clipPath id="clip0_276_1047">
<rect width="70" height="37" fill="white"/>
</clipPath>
</defs>
</svg>
